<svg height="438pt" viewBox="0 0 438.8575 438" width="438pt" xmlns="http://www.w3.org/2000/svg"><path d="m374.859375 37.003906c0-5.050781-4.09375-9.144531-9.144531-9.144531h-347.429688c-5.046875 0-9.140625 4.09375-9.140625 9.144531v64h365.714844zm0 0" fill="#fccb4f"/><path d="m384 110.144531h-384v-73.144531c0-10.082031 8.199219-18.285156 18.285156-18.285156h347.429688c10.085937 0 18.285156 8.203125 18.285156 18.285156zm-365.714844-18.289062h347.429688v-54.863281l-347.429688.007812zm0 0" fill="#2a3d4f"/><path d="m64 55.285156c-5.046875 0-9.144531-4.089844-9.144531-9.140625v-36.574219c0-5.050781 4.097656-9.140624 9.144531-9.140624 5.050781 0 9.144531 4.089843 9.144531 9.140624v36.574219c0 5.050781-4.09375 9.140625-9.144531 9.140625zm0 0" fill="#2a3d4f"/><path d="m100.570312 55.285156c-5.046874 0-9.140624-4.089844-9.140624-9.140625v-36.574219c0-5.050781 4.09375-9.140624 9.140624-9.140624 5.050782 0 9.144532 4.089843 9.144532 9.140624v36.574219c0 5.050781-4.09375 9.140625-9.144532 9.140625zm0 0" fill="#2a3d4f"/><path d="m283.429688 55.285156c-5.050782 0-9.144532-4.089844-9.144532-9.140625v-36.574219c0-5.050781 4.09375-9.140624 9.144532-9.140624 5.046874 0 9.140624 4.089843 9.140624 9.140624v36.574219c0 5.050781-4.09375 9.140625-9.140624 9.140625zm0 0" fill="#2a3d4f"/><path d="m320 55.285156c-5.046875 0-9.140625-4.089844-9.140625-9.140625v-36.574219c0-5.050781 4.09375-9.140624 9.140625-9.140624 5.050781 0 9.144531 4.089843 9.144531 9.140624v36.574219c0 5.050781-4.09375 9.140625-9.144531 9.140625zm0 0" fill="#2a3d4f"/><path d="m9.144531 101.003906v210.285156c0 5.046876 4.09375 9.140626 9.140625 9.140626h347.429688c5.050781 0 9.144531-4.09375 9.144531-9.140626v-210.285156zm0 0" fill="#e7e4e1"/><path d="m365.714844 329.570312h-347.429688c-10.085937 0-18.285156-8.203124-18.285156-18.285156v-219.429687h384v219.429687c0 10.082032-8.199219 18.285156-18.285156 18.285156zm-347.429688-219.425781v201.140625h347.429688v-201.140625zm0 0" fill="#2a3d4f"/><path d="m429.714844 338.714844c0 50.496094-40.933594 91.429687-91.429688 91.429687-50.492187 0-91.425781-40.933593-91.425781-91.429687 0-50.492188 40.933594-91.425782 91.425781-91.425782 50.496094 0 91.429688 40.933594 91.429688 91.425782zm0 0" fill="#3c96d1"/><g fill="#2a3d4f"><path d="m338.285156 439.285156c-55.453125 0-100.570312-45.117187-100.570312-100.570312 0-55.457032 45.117187-100.570313 100.570312-100.570313 55.457032 0 100.574219 45.113281 100.574219 100.570313 0 55.453125-45.117187 100.570312-100.574219 100.570312zm0-182.855468c-45.371094 0-82.285156 36.910156-82.285156 82.285156s36.914062 82.285156 82.285156 82.285156 82.285156-36.910156 82.285156-82.285156-36.914062-82.285156-82.285156-82.285156zm0 0"/><path d="m91.429688 165h-18.285157c-5.050781 0-9.144531-4.089844-9.144531-9.144531 0-5.050781 4.09375-9.140625 9.144531-9.140625h18.285157c5.046874 0 9.140624 4.089844 9.140624 9.140625 0 5.054687-4.09375 9.144531-9.140624 9.144531zm0 0"/><path d="m164.570312 165h-18.285156c-5.046875 0-9.140625-4.089844-9.140625-9.144531 0-5.050781 4.09375-9.140625 9.140625-9.140625h18.285156c5.050782 0 9.144532 4.089844 9.144532 9.140625 0 5.054687-4.09375 9.144531-9.144532 9.144531zm0 0"/><path d="m237.714844 165h-18.285156c-5.050782 0-9.144532-4.089844-9.144532-9.144531 0-5.050781 4.09375-9.140625 9.144532-9.140625h18.285156c5.050781 0 9.140625 4.089844 9.140625 9.140625 0 5.054687-4.089844 9.144531-9.140625 9.144531zm0 0"/><path d="m310.859375 165h-18.289063c-5.046874 0-9.140624-4.089844-9.140624-9.144531 0-5.050781 4.09375-9.140625 9.140624-9.140625h18.289063c5.046875 0 9.140625 4.089844 9.140625 9.140625 0 5.054687-4.09375 9.144531-9.140625 9.144531zm0 0"/><path d="m91.429688 219.855469h-18.285157c-5.050781 0-9.144531-4.085938-9.144531-9.140625 0-5.054688 4.09375-9.144532 9.144531-9.144532h18.285157c5.046874 0 9.140624 4.089844 9.140624 9.144532 0 5.054687-4.09375 9.140625-9.140624 9.140625zm0 0"/><path d="m164.570312 219.855469h-18.285156c-5.046875 0-9.140625-4.085938-9.140625-9.140625 0-5.054688 4.09375-9.144532 9.140625-9.144532h18.285156c5.050782 0 9.144532 4.089844 9.144532 9.144532 0 5.054687-4.09375 9.140625-9.144532 9.140625zm0 0"/><path d="m237.714844 219.855469h-18.285156c-5.050782 0-9.144532-4.085938-9.144532-9.140625 0-5.054688 4.09375-9.144532 9.144532-9.144532h18.285156c5.050781 0 9.140625 4.089844 9.140625 9.144532 0 5.054687-4.089844 9.140625-9.140625 9.140625zm0 0"/><path d="m310.859375 219.855469h-18.289063c-5.046874 0-9.140624-4.085938-9.140624-9.140625 0-5.054688 4.09375-9.144532 9.140624-9.144532h18.289063c5.046875 0 9.140625 4.089844 9.140625 9.144532 0 5.054687-4.09375 9.140625-9.140625 9.140625zm0 0"/><path d="m91.429688 274.714844h-18.285157c-5.050781 0-9.144531-4.089844-9.144531-9.144532 0-5.050781 4.09375-9.140624 9.144531-9.140624h18.285157c5.046874 0 9.140624 4.089843 9.140624 9.140624 0 5.054688-4.09375 9.144532-9.140624 9.144532zm0 0"/><path d="m164.570312 274.714844h-18.285156c-5.046875 0-9.140625-4.089844-9.140625-9.144532 0-5.050781 4.09375-9.140624 9.140625-9.140624h18.285156c5.050782 0 9.144532 4.089843 9.144532 9.140624 0 5.054688-4.09375 9.144532-9.144532 9.144532zm0 0"/><path d="m329.144531 247.285156h18.285157v27.429688h-18.285157zm0 0"/><path d="m329.144531 402.714844h18.285157v27.429687h-18.285157zm0 0"/><path d="m402.285156 329.570312h27.429688v18.285157h-27.429688zm0 0"/><path d="m246.855469 329.570312h27.429687v18.285157h-27.429687zm0 0"/></g><path d="m338.285156 302.144531v36.570313l-36.570312 36.574218" fill="#3c96d1"/><path d="m301.714844 384.429688c-2.339844 0-4.679688-.894532-6.464844-2.679688-3.570312-3.570312-3.570312-9.355469 0-12.929688l33.894531-33.890624v-32.785157c0-5.054687 4.09375-9.144531 9.140625-9.144531 5.050782 0 9.144532 4.089844 9.144532 9.144531v40.355469l-39.25 39.25c-1.785157 1.785156-4.125 2.679688-6.464844 2.679688zm0 0" fill="#2a3d4f"/></svg>